<svg xmlns="http://www.w3.org/2000/svg" xmlns:xlink="http://www.w3.org/1999/xlink" width="40" height="40" viewBox="0 0 40 40">
    <defs>
        <path id="a" d="M18.382 2.24H1.618C1 2.24.5 2.735.5 3.347v13.304c0 .612.5 1.109 1.118 1.109h16.764c.618 0 1.118-.497 1.118-1.11V3.349c0-.612-.5-1.109-1.118-1.109zm0 14.412H1.618V3.348h16.764v13.304zm-3.353-8.87a1.67 1.67 0 0 0 1.677-1.662 1.67 1.67 0 0 0-1.677-1.663 1.67 1.67 0 0 0-1.676 1.663c0 .918.75 1.663 1.676 1.663zm-5.029 0a1.67 1.67 0 0 0 1.676-1.662A1.67 1.67 0 0 0 10 4.457 1.67 1.67 0 0 0 8.324 6.12c0 .918.75 1.663 1.676 1.663zm-5.03 0A1.67 1.67 0 0 0 6.648 6.12a1.67 1.67 0 0 0-1.676-1.663A1.67 1.67 0 0 0 3.294 6.12c0 .918.75 1.663 1.677 1.663zm-1.117 4.99v2.217c0 .306.25.554.559.554h1.117a.557.557 0 0 0 .56-.554v-2.217c.616 0 1.117-.497 1.117-1.109V10c0-.806-.441-1.55-1.153-1.94-.673.37-1.491.37-2.165 0A2.215 2.215 0 0 0 2.735 10v1.663c0 .612.5 1.109 1.118 1.109zm5.03 0v2.217c0 .306.25.554.558.554h1.118a.557.557 0 0 0 .559-.554v-2.217c.617 0 1.117-.497 1.117-1.109V10c0-.806-.44-1.55-1.152-1.94-.674.37-1.492.37-2.166 0A2.215 2.215 0 0 0 7.765 10v1.663c0 .612.5 1.109 1.117 1.109zm5.029 0v2.217c0 .306.25.554.559.554h1.117a.557.557 0 0 0 .56-.554v-2.217c.616 0 1.117-.497 1.117-1.109V10c0-.806-.442-1.55-1.153-1.94-.674.37-1.491.37-2.165 0A2.215 2.215 0 0 0 12.794 10v1.663c0 .612.5 1.109 1.118 1.109zm-4.317 7.061a.64.64 0 0 0 .81 0l1.83-1.518h-4.47l1.83 1.518zm.81-19.667a.64.64 0 0 0-.81 0l-1.83 1.52h4.47l-1.83-1.52z"/>
    </defs>
    <g fill="none" fill-rule="evenodd">
        <rect width="40" height="40" fill="#2490FF" rx="6"/>
        <g transform="translate(10 10)">
            <mask id="b" fill="#fff">
                <use xlink:href="#a"/>
            </mask>
            <g fill="#FFF" mask="url(#b)">
                <path d="M0 0h20v20H0z"/>
            </g>
        </g>
    </g>
</svg>
