<svg xmlns="http://www.w3.org/2000/svg" xmlns:xlink="http://www.w3.org/1999/xlink" width="40" height="40" viewBox="0 0 40 40">
    <defs>
        <path id="a" d="M12.624 4.706h3.743L11.562 0v3.53c0 .65.472 1.176 1.062 1.176zm6.602 5.67a.87.87 0 0 0-.264-.596L17.929 8.77l-.424-.416-.425.416-.713.69V5.882h-3.61a2.424 2.424 0 0 1-1.696-.69 2.324 2.324 0 0 1-.7-1.663V0H.75v18.824c0 .65.537 1.176 1.2 1.176h14.416v-6.447l2.585-2.532a.844.844 0 0 0 .274-.645zm-13.19 1.22c-.197-.303-.536-1.393-.615-1.39a.087.087 0 0 0-.066.04c-.017.023-1.9 3.039-1.965 3.084l-.724-.826c.568-.753 1.883-2.803 2.018-2.937 1.422-1.393 1.883 1.067 2.005 1.309.328-.546 1.946-3.75 2.146-3.75.29 0 1.543 1.748 2.011 2.29.144.165.682.658 1.175.658 1.03 0 2.913-2.346 2.913-2.346-.387.71-1.492 3.099-3.033 3.267-.716.079-1.105-.274-1.342-.46-.89-.698-1.382-1.991-1.623-1.991-.053 0-.06.03-.078.052-.01.014-1.08 2.743-1.223 2.945-.317.454-1.127.78-1.599.055zm11.163.306a.086.086 0 0 1-.01.01l-6.197 6.071-2.633 1.333 1.396-2.546 6.39-6.252 1.043.994a.29.29 0 0 1 .09.194.256.256 0 0 1-.078.195zm1.348-1.316a.124.124 0 0 1-.01.01l-.73.715-1.238-1.214.934-.914 1.033 1.012c.115.113.12.285.012.39z"/>
    </defs>
    <g fill="none" fill-rule="evenodd">
        <rect width="40" height="40" fill="#FC0" rx="6"/>
        <g transform="translate(10 10)">
            <mask id="b" fill="#fff">
                <use xlink:href="#a"/>
            </mask>
            <g fill="#FFF" mask="url(#b)">
                <path d="M0 0h20v20H0z"/>
            </g>
        </g>
    </g>
</svg>
