<svg xmlns="http://www.w3.org/2000/svg" xmlns:xlink="http://www.w3.org/1999/xlink" width="50" height="50" viewBox="0 0 50 50">
    <defs>
        <path id="a" d="M20.613 13.23l.094.1-.094-.1zm8.97 6.74a9.114 9.114 0 0 0-1.053-3.496l-3.115-5.805a3.52 3.52 0 0 0-1.64-1.536v-5.8A3.34 3.34 0 0 0 20.43 0H.375v20a3.338 3.338 0 0 0 3.343 3.333H11.3l.972 1.81a9.231 9.231 0 0 0 10.776 4.468 9.195 9.195 0 0 0 6.536-9.641zM8.513 3.067c1.543-.727 3.34-.663 4.933.175 1.744.919 3.225 1.002 3.913.978V2.5l3.61 2.347c.45.292.45.847 0 1.139l-3.61 2.347V6.718c-.33.007-.66-.004-.99-.033-1.378-.121-2.794-.547-4.094-1.231-.888-.467-1.869-.514-2.69-.127a2.47 2.47 0 0 0-.693.482 2.723 2.723 0 0 0-2.56-.736 4.845 4.845 0 0 1 2.181-2.006zm15.448 24.376c-3.677 1.96-8.25.578-10.216-3.086L5.29 8.6a1.879 1.879 0 0 1 .774-2.546 1.89 1.89 0 0 1 2.554.772l4.45 8.294a1.879 1.879 0 0 1 .775-2.546 1.89 1.89 0 0 1 2.554.772l.445.829a1.879 1.879 0 0 1 .773-2.547 1.89 1.89 0 0 1 2.554.772l.445.829a1.877 1.877 0 0 1 .062-1.88 1.888 1.888 0 0 1 3.267.107l3.115 5.804c1.966 3.664.58 8.223-3.096 10.183z"/>
    </defs>
    <g fill="none" fill-rule="evenodd">
        <rect width="50" height="50" fill="#0FA296" rx="6"/>
        <g transform="translate(10 10)">
            <mask id="b" fill="#fff">
                <use xlink:href="#a"/>
            </mask>
            <g fill="#FFF" mask="url(#b)">
                <path d="M0 0h30v30H0z"/>
            </g>
        </g>
    </g>
</svg>
