<svg xmlns="http://www.w3.org/2000/svg" xmlns:xlink="http://www.w3.org/1999/xlink" width="40" height="40" viewBox="0 0 40 40">
    <defs>
        <path id="a" d="M8.34 5.762a2.416 2.416 0 0 0 .486 3.758v9.275c0 .66.526 1.194 1.174 1.194.648 0 1.174-.534 1.174-1.194V9.52a2.401 2.401 0 0 0 1.168-2.279 2.383 2.383 0 0 0-1.537-2.039 2.318 2.318 0 0 0-2.465.56zM7.096 3.576a.582.582 0 0 0-.83 0 5.421 5.421 0 0 0-1.547 3.8c0 1.425.557 2.791 1.547 3.799a.58.58 0 0 0 .823-.007.605.605 0 0 0 .007-.838 4.216 4.216 0 0 1-1.203-2.955c0-1.108.433-2.172 1.203-2.955a.605.605 0 0 0 0-.844zm6.64 0a.58.58 0 0 0-.571-.163.592.592 0 0 0-.42.427.605.605 0 0 0 .16.58 4.216 4.216 0 0 1 1.204 2.956 4.216 4.216 0 0 1-1.204 2.955.605.605 0 0 0 .008.838.58.58 0 0 0 .822.007 5.421 5.421 0 0 0 1.547-3.8 5.421 5.421 0 0 0-1.547-3.799zm-10.191 3.8a6.583 6.583 0 0 1 1.89-4.644.605.605 0 0 0-.007-.838.58.58 0 0 0-.823-.007 7.83 7.83 0 0 0-2.234 5.489 7.83 7.83 0 0 0 2.234 5.489.58.58 0 0 0 .571.163.592.592 0 0 0 .42-.427.605.605 0 0 0-.16-.58 6.583 6.583 0 0 1-1.891-4.645zm11.85-5.489a.58.58 0 0 0-.823.007.605.605 0 0 0-.007.838 6.626 6.626 0 0 1 1.89 4.644c0 1.742-.68 3.413-1.89 4.644a.605.605 0 0 0 .007.837.58.58 0 0 0 .823.008 7.83 7.83 0 0 0 2.234-5.489 7.83 7.83 0 0 0-2.234-5.489zM1.197 7.377a8.977 8.977 0 0 1 2.579-6.333.605.605 0 0 0 .16-.581.592.592 0 0 0-.42-.427.58.58 0 0 0-.57.164A10.232 10.232 0 0 0 .02 7.377c0 2.693 1.053 5.275 2.926 7.177a.58.58 0 0 0 .822-.007.605.605 0 0 0 .008-.837 8.977 8.977 0 0 1-2.579-6.334zm18.049-3.82A10.102 10.102 0 0 0 17.054.199a.58.58 0 0 0-.822.007.605.605 0 0 0-.008.837 9.035 9.035 0 0 1 2.579 6.333 9.035 9.035 0 0 1-2.579 6.333.605.605 0 0 0 .008.838.58.58 0 0 0 .822.007c2.834-2.885 3.697-7.216 2.192-10.997z"/>
    </defs>
    <g fill="none" fill-rule="evenodd">
        <rect width="40" height="40" fill="#D400B9" rx="6"/>
        <g transform="translate(10 10)">
            <mask id="b" fill="#fff">
                <use xlink:href="#a"/>
            </mask>
            <g fill="#FFF" mask="url(#b)">
                <path d="M0 0h20v20H0z"/>
            </g>
        </g>
    </g>
</svg>
