<svg xmlns="http://www.w3.org/2000/svg" xmlns:xlink="http://www.w3.org/1999/xlink" width="40" height="40" viewBox="0 0 40 40">
    <defs>
        <path id="a" d="M19.03 5.39l-3.613-3.643a3.27 3.27 0 0 0-2.323-.97 3.27 3.27 0 0 0-2.322.97l-.26.26-.516.52-4.128 4.165.517.52a1.454 1.454 0 0 0 2.064 0l3.097-3.123.258-.26.258-.26 6.71 6.766.259-.26a3.333 3.333 0 0 0-.001-4.684zM5.094 10.077a1.09 1.09 0 0 0-1.549 0l-1.032 1.04a1.11 1.11 0 0 0 .007 1.555 1.089 1.089 0 0 0 1.542.007l1.032-1.04a1.11 1.11 0 0 0 0-1.562zm2.064 2.082a1.09 1.09 0 0 0-1.548 0l-1.032 1.041a1.11 1.11 0 0 0 0 1.562 1.09 1.09 0 0 0 1.548 0l1.032-1.041a1.109 1.109 0 0 0 0-1.562zm2.065 2.082a1.09 1.09 0 0 0-1.548 0l-1.032 1.041a1.11 1.11 0 0 0 0 1.562 1.09 1.09 0 0 0 1.548 0l1.032-1.041a1.109 1.109 0 0 0 0-1.562zm2.065 2.082a1.088 1.088 0 0 0-1.548 0l-1.033 1.041a1.11 1.11 0 0 0 0 1.562 1.09 1.09 0 0 0 1.548 0l1.032-1.041a1.11 1.11 0 0 0 0-1.562zm5.38-7.069L12.061 4.61l-1.55 1.562-1.548 1.562a2.18 2.18 0 0 1-3.097 0l-1.032-1.04L9.48 2.006l-.217-.219A3.329 3.329 0 0 0 6.9.801c-.886 0-1.737.355-2.364.987L1.006 5.35a3.392 3.392 0 0 0 0 4.768l.758.766c.033-.051.069-.1.107-.148l.005-.006a1.769 1.769 0 0 1 .119-.133l1.034-1.04c.555-.56 1.404-.7 2.107-.345a1.843 1.843 0 0 1 .99 1.907 1.814 1.814 0 0 1 1.549.52c.406.41.597.989.515 1.562a1.814 1.814 0 0 1 1.55.52c.406.41.597.989.515 1.563a1.825 1.825 0 0 1 .772.055l.05.016c.275.089.524.243.727.449l.516.519c.43.416 1.111.409 1.532-.016a1.11 1.11 0 0 0 .016-1.545l-.516-.521-3.612-3.644a.37.37 0 0 1 .16-.622.363.363 0 0 1 .356.101l3.612 3.644.516.521a1.09 1.09 0 0 0 1.062.294 1.1 1.1 0 0 0 .778-.785 1.11 1.11 0 0 0-.292-1.07l-.516-.521-3.612-3.644A.37.37 0 0 1 11.809 8a.363.363 0 0 1 .51-.006l3.614 3.644.516.521a1.089 1.089 0 0 0 1.542-.007 1.11 1.11 0 0 0 .006-1.555l-1.33-1.343z"/>
    </defs>
    <g fill="none" fill-rule="evenodd">
        <rect width="40" height="40" fill="#626ED4" rx="6"/>
        <g transform="translate(10 10)">
            <mask id="b" fill="#fff">
                <use xlink:href="#a"/>
            </mask>
            <g fill="#FFF" mask="url(#b)">
                <path d="M0 0h20v20H0z"/>
            </g>
        </g>
    </g>
</svg>
