<svg xmlns="http://www.w3.org/2000/svg" xmlns:xlink="http://www.w3.org/1999/xlink" width="225" height="62" viewBox="0 0 225 62">
    <defs>
        <path id="a" d="M0 61.51h224.858V0H0z"/>
    </defs>
    <g fill="none" fill-rule="evenodd">
        <path fill="#666" d="M23.54 40.71c1.983 0 3.738-.37 5.261-1.108a10.871 10.871 0 0 0 3.842-3.081c1.04-1.316 1.812-2.884 2.32-4.708.507-1.823.761-3.82.761-5.99 0-2.168-.254-4.164-.761-5.987-.508-1.823-1.28-3.393-2.32-4.708a10.883 10.883 0 0 0-3.842-3.081c-1.523-.738-3.278-1.108-5.262-1.108-2.031 0-3.796.37-5.296 1.108-1.5.739-2.77 1.765-3.808 3.08-1.038 1.316-1.812 2.886-2.319 4.709-.508 1.823-.762 3.82-.762 5.988 0 2.17.254 4.166.762 5.989.507 1.824 1.28 3.392 2.32 4.708a10.956 10.956 0 0 0 3.807 3.08c1.5.74 3.265 1.108 5.296 1.108zm1.315 8.861c-.185.045-.37.08-.554.104-.185.023-.44.035-.762.035-3.738 0-7.073-.636-10.004-1.904-2.931-1.27-5.4-2.988-7.408-5.158-2.008-2.17-3.53-4.696-4.57-7.581C.52 32.183 0 29.102 0 25.824c0-3.276.52-6.357 1.558-9.242C2.596 13.698 4.119 11.17 6.128 9c2.007-2.17 4.476-3.888 7.407-5.158 2.93-1.27 6.266-1.904 10.004-1.904 3.74 0 7.062.635 9.97 1.904C36.417 5.113 38.875 6.83 40.882 9c2.008 2.17 3.542 4.697 4.604 7.58 1.062 2.886 1.593 5.967 1.593 9.243 0 4.247-.866 8.135-2.597 11.666-1.73 3.53-4.234 6.359-7.511 8.48l11.077 7.34-5.33 8.1-17.863-11.839z"/>
        <mask id="b" fill="#fff">
            <use xlink:href="#a"/>
        </mask>
        <path fill="#008F8E" d="M80.434 48.879h11.077V25.824H80.434z" mask="url(#b)"/>
        <path fill="#4EC3C6" d="M65.946 48.879h11.077V14.955H65.946z" mask="url(#b)"/>
        <path fill="#FF7900" d="M51.459 48.879h11.077V5.78H51.459z" mask="url(#b)"/>
        <path fill="#666" d="M114.427 14.262c1.754 0 3.473.185 5.158.554 1.684.37 3.15.877 4.396 1.523l-1.107 7.893c-.877-.35-1.928-.657-3.15-.92a17.593 17.593 0 0 0-3.704-.395c-2.955 0-5.17.801-6.647 2.404-1.477 1.603-2.215 3.803-2.215 6.596 0 2.794.738 4.992 2.215 6.595 1.477 1.603 3.692 2.405 6.647 2.405 1.246 0 2.48-.131 3.704-.395 1.222-.263 2.273-.57 3.15-.92l1.107 7.892c-1.246.647-2.712 1.154-4.396 1.523a24.065 24.065 0 0 1-5.158.554c-2.862 0-5.434-.427-7.719-1.28-2.285-.854-4.212-2.054-5.781-3.6-1.57-1.547-2.77-3.404-3.6-5.574-.831-2.169-1.246-4.57-1.246-7.2 0-2.631.415-5.03 1.246-7.2.83-2.17 2.03-4.027 3.6-5.574 1.569-1.546 3.496-2.745 5.781-3.6 2.285-.853 4.857-1.28 7.72-1.28M128.481 48.879V0h11.078V30.81l10.177-15.854h11.977L150.774 31.64l12.393 17.239h-12.67L139.56 32.47v16.408zM191.188 15.107h3.398l-12.12 33.772h-3.448l-12.12-33.772h3.398l10.446 29.563zM198.135 48.879h3.398V24.69h-3.398v24.188zm-.66-31.541c0-.676.22-1.243.66-1.699.439-.456.997-.684 1.673-.684.71 0 1.285.228 1.724.684.44.456.66 1.023.66 1.699 0 .642-.22 1.191-.66 1.648-.44.456-1.014.685-1.724.685-.676 0-1.234-.229-1.673-.685a2.29 2.29 0 0 1-.66-1.648zM207.617 48.879v-2.79l13.286-18.61h-12.627v-2.738h16.278v2.739l-13.286 18.66h13.59v2.739zM111.997 60.942c.226 0 .41-.067.55-.2.14-.132.21-.315.21-.55 0-.463-.31-.695-.93-.695h-1.246v1.445h1.416zm-.275-1.913c.28 0 .494-.052.64-.155.147-.104.22-.274.22-.512 0-.219-.061-.384-.184-.495-.123-.11-.346-.167-.67-.167h-1.147v1.329h1.141zm.088-1.797c.515 0 .864.106 1.047.316.183.211.277.447.28.708 0 .223-.053.415-.16.577a.949.949 0 0 1-.46.36v.011a.962.962 0 0 1 .592.351c.136.18.204.398.204.656 0 .343-.12.628-.36.857-.24.228-.535.342-.886.342h-2.042v-4.178h1.785zM115.443 57.232v2.692c0 .343.097.615.29.816.193.2.482.301.868.301.363 0 .635-.101.817-.304.181-.203.272-.474.272-.813v-2.692h.556v2.698c0 .507-.143.897-.428 1.17-.284.273-.69.41-1.217.41-.573 0-1.002-.137-1.286-.41-.285-.273-.428-.663-.428-1.17v-2.698h.556zM121.417 57.133c.472 0 .846.117 1.123.351.277.234.415.558.415.971h-.526c-.063-.57-.408-.854-1.036-.854-.3 0-.531.061-.693.184-.162.123-.243.3-.243.53 0 .144.06.27.182.38.12.11.507.23 1.158.363.448.09.783.23 1.003.418.22.19.331.452.331.787 0 .39-.16.694-.48.913-.32.218-.704.33-1.152.333-.527 0-.946-.131-1.258-.395-.312-.263-.468-.623-.468-1.079h.526c.004.324.118.572.343.746.224.173.515.26.874.26.34 0 .6-.065.784-.196.184-.13.275-.319.275-.564a.554.554 0 0 0-.266-.483c-.178-.119-.48-.22-.91-.301-.612-.121-1.015-.27-1.208-.445-.193-.176-.29-.408-.29-.696 0-.37.139-.667.416-.89.277-.222.643-.333 1.1-.333M124.705 61.41h.556v-4.178h-.556zM127.66 57.232l2.2 3.388h.01v-3.388h.528v4.178h-.609l-2.182-3.353h-.012v3.353h-.526v-4.178zM135.06 57.232v.468h-2.328v1.329h2.17v.468h-2.17v1.445h2.346v.468h-2.902v-4.178zM138.033 57.133c.472 0 .846.117 1.123.351.277.234.416.558.416.971h-.527c-.062-.57-.408-.854-1.036-.854-.3 0-.531.061-.693.184-.162.123-.243.3-.243.53 0 .144.06.27.182.38.12.11.507.23 1.158.363.449.09.783.23 1.003.418.22.19.331.452.331.787 0 .39-.16.694-.48.913-.32.218-.704.33-1.152.333-.527 0-.946-.131-1.258-.395-.312-.263-.468-.623-.468-1.079h.526c.004.324.118.572.343.746.224.173.515.26.874.26.34 0 .601-.065.784-.196.184-.13.275-.319.275-.564a.554.554 0 0 0-.266-.483c-.178-.119-.48-.22-.91-.301-.612-.121-1.015-.27-1.208-.445-.193-.176-.29-.408-.29-.696 0-.37.139-.667.416-.89.277-.222.644-.333 1.1-.333M142.702 57.133c.472 0 .846.117 1.123.351.277.234.415.558.415.971h-.526c-.063-.57-.408-.854-1.036-.854-.3 0-.531.061-.693.184-.162.123-.243.3-.243.53 0 .144.06.27.182.38.12.11.507.23 1.158.363.448.09.783.23 1.003.418.22.19.331.452.331.787 0 .39-.16.694-.48.913-.32.218-.704.33-1.152.333-.527 0-.946-.131-1.258-.395-.312-.263-.468-.623-.468-1.079h.526c.004.324.118.572.343.746.224.173.515.26.874.26.34 0 .6-.065.784-.196.184-.13.275-.319.275-.564a.554.554 0 0 0-.266-.483c-.178-.119-.48-.22-.91-.301-.612-.121-1.015-.27-1.208-.445-.193-.176-.29-.408-.29-.696 0-.37.139-.667.416-.89.277-.222.643-.333 1.1-.333M149.898 57.736l-.708 1.948h1.416l-.696-1.948h-.012zm.322-.504l1.632 4.178h-.614l-.456-1.258h-1.767l-.468 1.258h-.574l1.633-4.178h.614zM153.725 57.232l2.2 3.388h.011v-3.388h.527v4.178h-.609l-2.182-3.353h-.012v3.353h-.526v-4.178zM159.669 57.736l-.708 1.948h1.416l-.696-1.948h-.012zm.322-.504l1.632 4.178h-.614l-.457-1.258h-1.766l-.469 1.258h-.573l1.633-4.178h.614zM163.466 57.232v3.71h2.212v.468h-2.768v-4.178zM166.73 57.232l1.253 1.99 1.223-1.99h.632l-1.598 2.47v1.708h-.555v-1.709l-1.615-2.469zM174.08 57.232v.468h-1.393v3.71h-.556V57.7h-1.392v-.468zM175.442 61.41h.556v-4.178h-.556zM179.585 57.133c.464 0 .851.122 1.161.366.31.243.497.574.56.991h-.557c-.062-.288-.196-.509-.4-.66-.205-.153-.462-.229-.77-.229-.421 0-.762.152-1.024.456-.261.305-.392.716-.392 1.235 0 .546.127.974.38 1.284.254.31.601.465 1.042.465.351 0 .634-.112.848-.336.215-.224.334-.514.357-.869h.556c-.059.542-.245.957-.559 1.243-.314.287-.73.43-1.249.43-.593 0-1.063-.195-1.41-.585-.347-.39-.52-.92-.52-1.591 0-.651.177-1.18.532-1.586.355-.405.837-.61 1.445-.614M184.318 57.133c.472 0 .846.117 1.124.351.276.234.415.558.415.971h-.527c-.062-.57-.407-.854-1.035-.854-.3 0-.532.061-.694.184-.162.123-.242.3-.242.53 0 .144.06.27.18.38.122.11.508.23 1.16.363.448.09.782.23 1.003.418.22.19.33.452.33.787 0 .39-.16.694-.48.913-.32.218-.704.33-1.152.333-.527 0-.946-.131-1.258-.395-.312-.263-.468-.623-.468-1.079h.527c.003.324.117.572.342.746.224.173.516.26.875.26.339 0 .6-.065.783-.196.184-.13.275-.319.275-.564a.554.554 0 0 0-.266-.483c-.177-.119-.48-.22-.91-.301-.612-.121-1.015-.27-1.208-.445-.193-.176-.29-.408-.29-.696 0-.37.14-.667.416-.89.277-.222.644-.333 1.1-.333M191.491 57.133c.472 0 .846.117 1.124.351.276.234.415.558.415.971h-.527c-.062-.57-.407-.854-1.035-.854-.3 0-.532.061-.694.184-.161.123-.242.3-.242.53 0 .144.06.27.181.38.121.11.507.23 1.159.363.448.09.782.23 1.003.418.22.19.33.452.33.787 0 .39-.16.694-.48.913-.319.218-.704.33-1.152.333-.527 0-.946-.131-1.258-.395-.312-.263-.468-.623-.468-1.079h.527c.003.324.118.572.342.746.224.173.516.26.875.26.339 0 .6-.065.784-.196.183-.13.275-.319.275-.564a.554.554 0 0 0-.266-.483c-.178-.119-.481-.22-.91-.301-.613-.121-1.015-.27-1.209-.445-.193-.176-.29-.408-.29-.696 0-.37.14-.667.416-.89.277-.222.644-.333 1.1-.333M195.078 59.321c0 .511.131.926.395 1.243.263.319.613.477 1.05.477.437 0 .787-.157 1.05-.47.263-.315.395-.731.395-1.25 0-.503-.129-.915-.386-1.237-.258-.322-.613-.483-1.065-.483-.445 0-.796.162-1.053.486-.258.324-.386.735-.386 1.234m1.445-2.188c.605 0 1.089.206 1.454.617.365.412.547.935.547 1.571 0 .648-.185 1.174-.556 1.58-.37.406-.852.608-1.445.608-.6 0-1.085-.204-1.451-.614-.367-.41-.55-.934-.55-1.574 0-.624.18-1.144.538-1.562.36-.417.846-.626 1.463-.626M200.636 57.232v3.71h2.211v.468h-2.767v-4.178zM204.568 57.232v2.692c0 .343.096.615.29.816.193.2.482.301.868.301.363 0 .635-.101.816-.304.182-.203.272-.474.272-.813v-2.692h.556v2.698c0 .507-.142.897-.427 1.17-.285.273-.69.41-1.217.41-.573 0-1.002-.137-1.287-.41-.285-.273-.427-.663-.427-1.17v-2.698h.556zM212.033 57.232v.468h-1.392v3.71h-.556V57.7h-1.393v-.468zM213.396 61.41h.556v-4.178h-.556zM216.088 59.321c0 .511.131.926.395 1.243.263.319.613.477 1.05.477.437 0 .787-.157 1.05-.47.263-.315.395-.731.395-1.25 0-.503-.129-.915-.386-1.237-.258-.322-.613-.483-1.065-.483-.445 0-.796.162-1.053.486-.258.324-.386.735-.386 1.234m1.445-2.188c.605 0 1.089.206 1.454.617.365.412.547.935.547 1.571 0 .648-.185 1.174-.556 1.58-.37.406-.852.608-1.445.608-.6 0-1.085-.204-1.451-.614-.367-.41-.55-.934-.55-1.574 0-.624.18-1.144.538-1.562.359-.417.846-.626 1.463-.626M221.675 57.232l2.2 3.388h.012v-3.388h.526v4.178h-.608l-2.182-3.353h-.012v3.353h-.527v-4.178z" mask="url(#b)"/>
    </g>
</svg>
